<?xml version="1.0" encoding="UTF-8"?><svg id="_野田_2022_ロゴ_最終版" xmlns="http://www.w3.org/2000/svg" viewBox="0 0 394.37 355.99"><defs><style>.cls-1{fill:#20bd9c;}.cls-2{fill:#f15821;}.cls-3{fill:#1d45f5;}.cls-4{fill:#f5cd1e;}.cls-5{fill:#97df2d;}.cls-6{fill:#1eab2c;}.cls-7{fill:#26c3dd;}.cls-8{fill:#e673d4;}.cls-9{fill:#e2184f;}.cls-10{fill:#de619f;}.cls-11{fill:#9d26de;}</style></defs><g id="_ロゴ"><g id="_背景"><path class="cls-9" d="M101.45,306.94c0-.55,0-1.1,0-1.65,.14-10.6,1.47-21.48-1.62-31.62-2.79-9.14-9.13-18.18-6.53-27.37,.82-2.9,2.48-6.13,.9-8.7-1.91-3.11-6.56-2.28-10.06-1.22-21.47,6.47-44.95,6.07-66.18-1.13-4.82-1.63-10.34-4.75-10.3-9.84,.02-2.94,2.01-5.48,4.1-7.55,15.64-15.54,39.67-17.59,61.48-20.83,3.24-.48,6.6-1.06,9.3-2.91s4.55-5.37,3.46-8.46c-1.22-3.46-5.6-5.38-6.02-9.03-.51-4.37,4.93-6.92,9.32-7.04s9.42,.6,12.61-2.42c.66-.63,1.22-1.45,1.24-2.36,.02-1.51-1.36-2.61-2.64-3.41-12.89-8.11-28.44-11.43-40.86-20.25-2.22-1.58-4.56-4.22-3.39-6.67,1.07-2.26,4.36-2.36,6.6-1.26,3.7,1.82,5.83,5.8,9.01,8.43,3.6,2.98,8.8,5.82,10.38,4.39,1.58-1.3-3.99-9.88-7.47-13.97s-7.22-8.32-8.34-13.57c-.48-2.27-.26-4.71,.57-6.88s2.26-3.68,3.7-5.32c.93-1.07,1.93-2.08,3.27-2.6,1.83-.71,4.02-.8,5.96-.74,3.94,.12,7.81,1.36,11.26,3.22,5.59,3.02,10.22,7.52,14.93,11.79,7.65,6.93,15.74,13.39,24.19,19.31,4.08,2.86,9.43,5.68,13.77,3.23,2.54-1.43,3.89-4.31,4.65-7.12,3.78-13.97-2.75-31.11,6.72-42.05,2.28-2.63,5.59-4.63,9.05-4.36,3.59,.28,6.57,2.89,8.74,5.76,4.8,6.32,7.01,14.56,6.01,22.43-.49,3.9-1.67,7.67-3.01,11.35s-2.86,7.36-4.04,11.13c-.59,1.88-1.09,3.79-1.44,5.72-.23,1.27-.33,2.59-.21,3.89,.1,1.05,.39,2.11,.99,2.97,1.04,1.49,3.06,2.1,4.79,1.61,1.46-.41,2.31-1.65,3.08-2.87,1.98-3.16,5.99-3.96,9.41-3.14,1.81,.43,3.53,1.3,4.91,2.55,1.79,1.63,2.55,3.45,2.92,5.86,.4,2.62,.15,5.33-.58,7.87-1.18,4.06-3.52,7.7-6.25,10.93-6.3,7.46-14.8,13.03-24.14,15.86-2.31,.7-7.07,2.11-5.63,5.48,1.23,2.87,5.35,.8,7.4,.14,3.73-1.2,7.41-2.76,10.85-4.65,4.4-2.42,8.49-5.43,12.1-8.92,7.36-7.13,12.24-16.22,15.31-25.91,.27-.82,.53-1.64,.71-2.49,.52-2.46,1.94-4.7,3.96-6.21,.1-.08,.2-.15,.31-.22,.94-.65,1.94-1.3,3-1.73,1.62-.66,3.55-.93,5.19-.19s2.57,2.45,2.35,4.2c-.15,1.12-.79,2.16-1.71,2.81-.23,.16-.48,.28-.73,.39-.35,.16-.99,.35-.95,.84,.04,.57,.82,.61,1.24,.51,.46-.11,.9-.37,1.33-.58,.65-.32,1.27-.7,1.86-1.12,3.19-2.25,4.64-5.67,5.57-9.36,.78-3.08,1.32-6.21,2.35-9.21s2.47-5.99,4.13-8.76c3.66-6.08,8.65-11.37,14.58-15.28,2.88-1.9,6.45-3.52,9.68-2.31,4.51,1.7,5.4,8.16,3.04,12.35s-6.79,6.72-10.88,9.27-8.29,5.69-9.65,10.32c-.31,1.07-.46,2.25-.03,3.27,.86,2.07,3.5,2.61,5.72,2.86,17.6,1.99,37.35,5.2,47.57,19.67,2.37,3.36,4.12,7.38,3.81,11.48-.54,7.22-7.02,12.47-13.41,15.89-18.75,10.02-40.71,12.1-60.45,20-1.88,.75-4.11,2.21-3.66,4.19,.22,.99,1.08,1.7,1.93,2.27,8.39,5.7,19.36,5.91,28.48,10.35,3.03,1.47,6.17,4.05,5.95,7.41-.18,2.78-2.89,5.18-4.69,7.03-.95,.98-1.98,1.94-2.78,3.05-.27,.38-.75,.96-.72,1.43,.1,1.7,2.52,1.9,3.75,2.07,2.05,.29,4.1,.53,6.15,.74,4.16,.42,8.33,.68,12.5,.79,1.6,.04,3.25,.07,4.71,.71s2.59,2.08,2.59,3.68c0,2.48-2.37,3.84-3.28,4.28-1.25,.6-2.71,.53-4.09,.42-2.69-.21-5.33-.81-7.96-1.4-6.97-1.39-13.01-5.09-20.19-4.82-4.43,.19-8.52,1.51-12.98,.51-6.35-1.43-13.19-4.43-19.3-6.68-5.24-1.93-10.63-4.19-16.19-3.64-7.27,.72-14.1,6.22-21.18,4.41-1.56-.4-3.07-1.15-4.69-1.14-4.2,.03-6.59,5.33-5.56,9.4s4.18,7.18,6.78,10.47c7.12,9.03,10.21,22.96,2.72,31.69-7.9,9.2-24.15,8.97-29.9,19.64-2.74,5.09-2.26,11.49-5.23,16.45-5.45,9.1-20.19,8.06-27.46,.34-6.89-7.32-8.55-18.02-8.58-28.15Z"/><path class="cls-5" d="M227.9,295.35c1.58,43.43-65.36-12.48-24.34-8.51-.19-10.28-16.09-7.83-17.75-17.31,4.78-27.79,42.01,13.89,42.09,25.83Z"/><path class="cls-8" d="M36.64,316.2c-.37,.03-.74,.04-1.11,.05-1.16,.02-2.38-.05-3.39-.62-1.37-.77-2.14-2.36-2.3-3.92s.22-3.14,.67-4.65c3.42-11.46,11.14-21.07,18.73-30.31,3.38-4.12,24.45-31.46,30.41-21.02,.79,1.38,.68,3.09,.27,4.63-2.01,7.68-10,12.08-14.33,18.74-2.88,4.43-4.03,9.72-5.59,14.76-1.76,5.68-4.2,11.32-8.39,15.53-3.96,3.97-9.38,6.43-14.97,6.82Z"/><path class="cls-7" d="M130.16,99.76c-.16,4.28-1.67,8.52-4.33,11.89-.57,.72-1.22,1.42-2.08,1.75-2.02,.78-4.16-.77-5.65-2.34-5.03-5.28-8.41-11.88-12.63-17.83-1.86-2.62-3.93-5.16-6.59-6.97-1.61-1.09-3.42-1.89-4.97-3.07-2.66-2.01-4.42-4.99-5.71-8.06-.85-2.03-1.52-4.17-1.55-6.36-.08-5.53,4.89-9.49,10.23-7.37,2.65,1.05,4.74,3.13,6.88,5.02,6.85,6.05,15.01,10.74,20.7,17.89,2.51,3.16,4.5,6.79,5.31,10.74,.32,1.55,.44,3.13,.39,4.7Z"/><path class="cls-1" d="M257.77,279.86c.07,.13,.19,.25,.29,.36,.1,.13,.2,.25,.31,.38,.2,.26,.4,.52,.57,.79,.35,.54,.67,1.11,.94,1.7,.22,.49,.42,.99,.58,1.5,.19,.59,.33,1.24,.09,1.81-.36,.87-1.44,1.17-2.37,1.26-2.8,.25-5.6-.44-8.28-1.27-7.78-2.4-15.18-5.96-22.21-10.07-4.7-2.74-9.32-5.78-12.93-9.86-.84-.95-1.65-2-1.93-3.24-.24-1.05-.02-2.29,.79-3.05,.1-.09,.2-.17,.28-.27,.06-.07,.11-.15,.19-.21,.23-.18,.53-.28,.8-.36,.58-.17,1.2-.17,1.79-.08,1.18,.17,2.31,.65,3.39,1.13,17.62,7.78,38.2,5.83,56.18,12.75,2.25,.86,4.48,1.89,6.25,3.53s3.02,3.97,2.85,6.37c-.06,.85-.31,1.72-.87,2.37-1.17,1.36-3.25,1.38-5.04,1.18-1.4-.16-2.79-.39-4.17-.69s-2.74-.64-4.09-1.03-2.7-.83-4.03-1.3-2.66-.97-3.98-1.49-2.63-1.06-3.93-1.6c-.25-.1-.49-.21-.73-.32-.21-.09-.5-.28-.72-.28Z"/><path class="cls-1" d="M208.37,116.85c-27.52,29.26-15.06-28.4,7.26-27.87,23.84-2.06,2.79,48.32-7.26,27.87Z"/><path class="cls-4" d="M290.04,220.26c-7.11-6.52-39.27,5.58-28.57-7.23,10.15-3.36,58.78-11.08,28.57,7.23Z"/><path class="cls-6" d="M159.6,72.19c.04,1.3-.03,2.62-.5,3.83-.23,.59-.59,1.18-1.17,1.45-.77,.35-1.68,.02-2.41-.41-1.38-.81-2.51-1.97-3.54-3.19-2.07-2.46-3.77-5.21-5.26-8.05-1.46-2.77-3.67-6.67-2.7-9.9,.86-2.86,3.86-4.71,6.79-4.07,1.73,.38,3.09,1.72,4.09,3.19,1.68,2.48,2.56,5.4,3.29,8.3,.73,2.88,1.32,5.82,1.41,8.79,0,.02,0,.04,0,.06Z"/><path class="cls-11" d="M52.9,249.03c.58-.15,1.23-.14,2.06,.12,1.48,.46,3.06,1.24,3.51,2.86,.39,1.41-.26,2.89-1.1,4.09-1.58,2.26-3.81,3.97-6.09,5.51-3.49,2.35-7.34,4.43-11.53,4.8-1.92,.17-4.27-.32-4.92-2.14-.38-1.06-.01-2.27,.66-3.18s1.63-1.55,2.56-2.19c3.94-2.68,7.88-5.37,11.82-8.05,1.19-.81,2.01-1.57,3.03-1.83Z"/><path class="cls-4" d="M31.31,129.86c.49,.02,.99,.15,1.53,.38,1.01,.45,1.87,1.16,2.77,1.8,2.14,1.53,4.5,2.71,6.68,4.18s4.23,3.27,5.37,5.63c.34,.7,.59,1.48,.44,2.24-.18,.92-.94,1.64-1.81,1.98s-1.84,.35-2.77,.26c-3.07-.3-5.94-1.65-8.62-3.18-2.73-1.55-5.4-3.37-7.2-5.94-.73-1.04-1.33-2.3-1.13-3.56,.21-1.32,1.22-2.31,2.28-3.02,.81-.54,1.61-.81,2.46-.77Z"/><path class="cls-5" d="M215.64,336.68c-5.76,.6-12.41-9.96-6.01-14.04,9.79-5.04,18.9,13.08,6.01,14.04Z"/><path class="cls-3" d="M146.93,334.58c.78-13.65,15.21-5.29,12.41,4.71-2.44,9.69-13.66,3.49-12.41-4.71Z"/><path class="cls-11" d="M280.97,106.88c1.35-.28,2.44,.19,3.69,.7,.68,.27,1.35,.63,1.86,1.17,.82,.87,.94,2,.56,3.1-1.01,2.93-4.18,5.15-6.72,6.66-2,1.19-5.56,3.27-8.01,2.32-.52-.2-.99-.65-1.06-1.22-.32-2.95,.86-5.77,2.76-7.98,.96-1.12,2.09-2.1,3.31-2.93,1.04-.71,2.2-1.49,3.47-1.79,.04,0,.08-.02,.12-.03Z"/><path class="cls-4" d="M193.58,82.81c-1.41-7.01,9.45-14.76,11.35-4.88,1.08,6-11.28,16.4-11.35,4.88Z"/><path class="cls-8" d="M159.05,48.5c-7.91,.4-6.08-11.75-.08-12.11,9.29-.76,7.36,12.31,.08,12.11Z"/><path class="cls-4" d="M68.02,288.56c-.01-.99,.25-2,.72-2.88,1.6-2.95,6.08-5.37,8.51-1.9,1.07,1.52,1.17,3.54,.8,5.36-.21,1.06-.57,2.12-1.21,2.99s-1.58,1.57-2.64,1.76c-1.24,.22-2.51-.24-3.55-.93-.94-.63-1.77-1.48-2.23-2.51-.26-.6-.39-1.25-.4-1.9Z"/><path class="cls-4" d="M296.55,226.01c.44,.07,.88,.16,1.32,.25,1.6,.33,3.23,.68,4.64,1.51,.67,.39,1.35,1.02,1.31,1.79-.03,.61-.49,1.1-.97,1.47-1.52,1.18-3.46,1.69-5.37,1.93-2.33,.29-4.7,.22-7.01-.2-.57-.11-1.18-.26-1.57-.69-.45-.51-.47-1.3-.22-1.93,.89-2.25,3.81-4.08,6.16-4.23,.57-.04,1.14,.01,1.71,.1Z"/><path class="cls-2" d="M145.22,115.28c-.81,10.69-11.98,1.17-8.1-5.27,3.09-5.54,8.73,1.01,8.1,5.27Z"/><path class="cls-7" d="M6.75,187.07c-2.99-.91-7.11-1.3-6.72-5.22,3.67-8.49,19.93,2.17,6.72,5.22Z"/><path class="cls-2" d="M200.82,322.43c-5.98,.33-6.32-8.3-.53-8.59,6.2-.43,6.7,8.53,.53,8.59Z"/><path class="cls-10" d="M70.42,308.56c-.07,5.38-8.04,5.18-7.78-.34,.08-5.31,8.11-5.18,7.78,.34Z"/><path class="cls-3" d="M140.29,355.99c-4.34,.05-4.44-7.24,.04-7.17,4.56-.27,4.46,7.38-.04,7.17Z"/><path class="cls-2" d="M144.11,98.55c.27,4.36-6.48,4.83-6.73,.55-.19-4.24,6.57-4.99,6.73-.55Z"/><path class="cls-11" d="M59.85,184.9c.24,4.14-6.61,4.64-6.66,.38-.31-4.41,6.56-4.72,6.66-.38Z"/><path class="cls-4" d="M317.09,227.51c.15,4.57-6.35,4.53-6.03-.2,.08-4.53,6.21-4.7,6.03,.2Z"/><path class="cls-11" d="M167.55,53.79c4.06,.26,1.98,6.6-1.37,6.31-3.87-.58-2.69-6.8,1.37-6.31Z"/><path class="cls-11" d="M55.62,120.01c.07,3.67-5.55,3.81-5.52,.06-.3-3.89,5.75-4.14,5.52-.06Z"/><path class="cls-2" d="M264.89,127.57c3.87-.13,3.51,5.82-.19,5.44-3.86,.11-3.95-5.61,.19-5.44Z"/><path class="cls-3" d="M53.88,175.61c-2.23-.09-4.46-.14-6.63,.33-2.64,.57-5.06,1.86-7.55,2.91s-5.2,1.88-7.86,1.43-5.22-2.49-5.46-5.18c-.19-2.13,1.12-4.2,2.9-5.38,.79-.53,1.69-.92,2.37-1.58s1.12-1.73,.69-2.58c-.24-.48-.71-.81-1.19-1.04-1.24-.61-2.64-.76-4.01-.85-3.47-.23-7.04-.14-10.3-1.34s-6.2-4.16-6.07-7.63c.11-2.97,2.38-5.33,4.83-6.72,3-1.7,6.32-1.25,9.39,.03,2.67,1.11,5.15,2.68,7.94,3.42,3.14,.83,6.45,.56,9.69,.74s6.69,.95,8.88,3.34c1.89,2.06,2.61,5.06,4.77,6.83,1.76,1.44,4.14,1.78,6.31,2.45s4.47,1.98,4.96,4.2c.34,1.54-.34,3.18-1.46,4.28s-2.65,1.72-4.18,2.06c-2.62,.57-5.31,.4-8.01,.29Z"/></g></g></svg>