<?xml version="1.0" encoding="UTF-8"?><svg id="_野田_2022_ロゴ_最終版" xmlns="http://www.w3.org/2000/svg" viewBox="0 0 453.54 453.54"><defs><style>.cls-1{fill:#fff;stroke:#231815;stroke-miterlimit:10;stroke-width:1.5px;}</style></defs><g id="_ロゴ"><g id="_背景"><path class="cls-1" d="M131.03,355.71c0-.55,0-1.1,0-1.65,.14-10.6,1.47-21.48-1.62-31.62-2.79-9.14-9.13-18.18-6.53-27.37,.82-2.9,2.48-6.13,.9-8.7-1.91-3.11-6.56-2.28-10.06-1.22-21.47,6.47-44.95,6.07-66.18-1.13-4.82-1.63-10.34-4.75-10.3-9.84,.02-2.94,2.01-5.48,4.1-7.55,15.64-15.54,39.67-17.59,61.48-20.83,3.24-.48,6.6-1.06,9.3-2.91s4.55-5.37,3.46-8.46c-1.22-3.46-5.6-5.38-6.02-9.03-.51-4.37,4.93-6.92,9.32-7.04s9.42,.6,12.61-2.42c.66-.63,1.22-1.45,1.24-2.36,.02-1.51-1.36-2.61-2.64-3.41-12.89-8.11-28.44-11.43-40.86-20.25-2.22-1.58-4.56-4.22-3.39-6.67,1.07-2.26,4.36-2.36,6.6-1.26,3.7,1.82,5.78,5.12,9.22,7.92,4.07,3.31,8.07,6.22,10.16,3.75,1.66-1.97-3.98-8.73-7.46-12.82s-7.22-8.32-8.34-13.57c-1.65-7.75,5.11-16.16,13.14-15.58,4.12,.3,7.96,1.29,11.62,3.26,5.59,3.02,10.22,7.52,14.93,11.79,7.65,6.93,15.74,13.39,24.19,19.31,4.08,2.86,9.43,5.68,13.77,3.23,2.54-1.43,3.89-4.31,4.65-7.12,3.78-13.97-2.75-31.11,6.72-42.05,2.28-2.63,5.59-4.63,9.05-4.36,3.59,.28,6.57,2.89,8.74,5.76,4.8,6.32,7.01,14.56,6.01,22.43-1.46,11.48-9.26,22.88-9,33.71,.06,2.5,6.97,3.73,8.11,2.27,.49-.64,.61-1.49,1.04-2.17,3.49-5.57,13.1-3.98,16.21,1.82,.78,1.45,1.22,3,1.38,4.58,.47,4.78,4.55,9.57,8.6,.51,.4-.9,.8-1.81,1.2-2.71,1.22-2.79,2.49-5.7,4.83-7.66s6.08-2.6,8.36-.59,1.27,6.78-1.77,6.91c3.15,.58,6.24-1.71,7.77-4.52s1.94-6.08,2.63-9.21c2.63-11.93,10.06-22.73,20.26-29.45,2.88-1.9,6.45-3.52,9.68-2.31,4.51,1.7,5.4,8.16,3.04,12.35s-6.79,6.72-10.88,9.27-8.29,5.69-9.65,10.32c-.31,1.07-.46,2.25-.03,3.27,.86,2.07,3.5,2.61,5.72,2.86,17.6,1.99,37.35,5.2,47.57,19.67,2.37,3.36,4.12,7.38,3.81,11.48-.54,7.22-7.02,12.47-13.41,15.89-18.75,10.02-40.71,12.1-60.45,20-1.88,.75-4.11,2.21-3.66,4.19,.22,.99,1.08,1.7,1.93,2.27,8.39,5.7,19.36,5.91,28.48,10.35,3.03,1.47,6.17,4.05,5.95,7.41-.29,4.58-6.64,7.41-6.04,11.95,9.68,.85,19.19,3.65,27.79,8.18-22.91,2.52-46.4-.35-68.03-8.31-5.24-1.93-10.63-4.19-16.19-3.64-7.27,.72-14.1,6.22-21.18,4.41-1.56-.4-3.07-1.15-4.69-1.14-4.2,.03-6.59,5.33-5.56,9.4s4.18,7.18,6.78,10.47c7.12,9.03,10.21,22.96,2.72,31.69-7.9,9.2-24.15,8.97-29.9,19.64-2.74,5.09-2.26,11.49-5.23,16.45-5.45,9.1-20.19,8.06-27.46,.34-6.89-7.32-8.55-18.02-8.58-28.15Z"/><path class="cls-1" d="M189.19,120.96c.04,1.3-.03,2.62-.5,3.83-.23,.59-.59,1.18-1.17,1.45-.77,.35-1.68,.02-2.41-.41-1.38-.81-2.51-1.97-3.54-3.19-2.07-2.46-3.77-5.21-5.26-8.05-1.46-2.77-3.67-6.67-2.7-9.9,.86-2.86,3.86-4.71,6.79-4.07,1.73,.38,3.09,1.72,4.09,3.19,1.68,2.48,2.56,5.4,3.29,8.3,.73,2.88,1.32,5.82,1.41,8.79,0,.02,0,.04,0,.06Z"/><path class="cls-1" d="M82.49,297.81c.58-.15,1.23-.14,2.06,.12,1.48,.46,3.06,1.24,3.51,2.86,.39,1.41-.26,2.89-1.1,4.09-1.58,2.26-3.81,3.97-6.09,5.51-3.49,2.35-7.34,4.43-11.53,4.8-1.92,.17-4.27-.32-4.92-2.14-.38-1.06-.01-2.27,.66-3.18s1.63-1.55,2.56-2.19c3.94-2.68,7.88-5.37,11.82-8.05,1.19-.81,2.01-1.57,3.03-1.83Z"/><path class="cls-1" d="M176.52,383.35c.78-13.65,15.21-5.29,12.41,4.71-2.44,9.69-13.66,3.49-12.41-4.71Z"/><path class="cls-1" d="M310.56,155.66c1.35-.28,2.44,.19,3.69,.7,.68,.27,1.35,.63,1.86,1.17,.82,.87,.94,2,.56,3.1-1.01,2.93-4.18,5.15-6.72,6.66-2,1.19-5.56,3.27-8.01,2.32-.52-.2-.99-.65-1.06-1.22-.32-2.95,.86-5.77,2.76-7.98,.96-1.12,2.09-2.1,3.31-2.93,1.04-.71,2.2-1.49,3.47-1.79,.04,0,.08-.02,.12-.03Z"/><path class="cls-1" d="M174.81,164.06c-.81,10.69-11.98,1.17-8.1-5.27,3.09-5.54,8.73,1.01,8.1,5.27Z"/><path class="cls-1" d="M169.88,404.76c-4.34,.05-4.44-7.24,.04-7.17,4.56-.27,4.46,7.38-.04,7.17Z"/><path class="cls-1" d="M173.7,147.32c.27,4.36-6.48,4.83-6.73,.55-.19-4.24,6.57-4.99,6.73-.55Z"/><path class="cls-1" d="M89.44,233.68c.24,4.14-6.61,4.64-6.66,.38-.31-4.41,6.56-4.72,6.66-.38Z"/><path class="cls-1" d="M85.21,168.78c.07,3.67-5.55,3.81-5.52,.06-.3-3.89,5.75-4.14,5.52-.06Z"/><path class="cls-1" d="M294.47,176.35c3.87-.13,3.51,5.82-.19,5.44-3.86,.11-3.95-5.61,.19-5.44Z"/><path class="cls-1" d="M83.46,224.39c-2.23-.09-4.46-.14-6.63,.33-2.64,.57-5.06,1.86-7.55,2.91s-5.2,1.88-7.86,1.43-5.22-2.49-5.46-5.18c-.19-2.13,1.12-4.2,2.9-5.38,.79-.53,1.69-.92,2.37-1.58s1.12-1.73,.69-2.58c-.24-.48-.71-.81-1.19-1.04-1.24-.61-2.64-.76-4.01-.85-3.47-.23-7.04-.14-10.3-1.34s-6.2-4.16-6.07-7.63c.11-2.97,2.38-5.33,4.83-6.72,3-1.7,6.32-1.25,9.39,.03,2.67,1.11,5.15,2.68,7.94,3.42,3.14,.83,6.45,.56,9.69,.74s6.69,.95,8.88,3.34c1.89,2.06,2.61,5.06,4.77,6.83,1.76,1.44,4.14,1.78,6.31,2.45s4.47,1.98,4.96,4.2c.34,1.54-.34,3.18-1.46,4.28s-2.65,1.72-4.18,2.06c-2.62,.57-5.31,.4-8.01,.29Z"/></g><g id="Irodori"><path class="cls-1" d="M364.81,299.34c-3.14-.84-6.27-1.67-9.41-2.52-7.23-1.96-13.96-4.99-19.98-9.49-5.65-4.22-10.11-9.54-13.94-15.37-1.33-2.02-1.86-4.55-2.81-7.01-.31,.37-.67,.81-1.03,1.25-1.94,2.33-3.77,4.77-5.88,6.93-1.13,1.15-2.68,2.03-4.2,2.65-2.45,.99-4.77,.02-5.68-2.45-.65-1.76-1-3.72-1.02-5.6-.04-5.15,1.16-10.14,2.54-15.07,.32-1.15,.67-2.29,1.04-3.58-.54-.22-1.03-.41-1.71-.69-.41,.73-.8,1.4-1.17,2.08-.69,1.26-1.37,2.53-2.05,3.79-2.72,5.03-6.91,7.34-12.88,6.77-.38,.64-.77,1.42-1.26,2.11-2.04,2.85-3.96,5.81-6.21,8.49-5.2,6.17-13.95,2.9-15.49-3.85-.14-.6-.35-1.19-.64-2.18-.67,.91-1.13,1.62-1.67,2.27-1.38,1.65-2.67,3.41-4.23,4.88-2.48,2.34-5.46,2.14-7.84-.32-1.48-1.53-2.3-3.44-2.91-5.44-.22-.74-.48-1.46-.81-2.46-.68,.84-1.17,1.44-1.66,2.04-1.87,2.31-3.96,4.36-6.49,5.99-4.18,2.69-10.73,.92-12.37-4.4-.62-2.03-.72-4.22-.96-6.35-.1-.85,.07-1.73,.13-2.8-2.43,.12-4.77,.24-7.5,.38-.33,.47-.83,1.28-1.43,2-2.55,3.07-5.1,6.14-7.73,9.14-.73,.83-1.72,1.42-2.61,2.1-5.64,4.35-16.1,1.66-17.47-6.79-.07-.46-.25-.91-.49-1.78-.72,.7-1.26,1.21-1.78,1.73-3.01,3.01-6.19,5.79-9.89,7.92-2.38,1.37-4.88,2.35-7.73,2.15-3.08-.21-5.04-1.72-5.92-4.7-.94-3.18-.45-6.35,.19-9.49,1.18-5.75,3.3-11.18,5.82-16.45,.41-.86,.82-1.72,1.37-2.88-1-.24-1.88-.45-2.76-.67-.84-.21-1.67-.44-2.68-.7-.35,1.23-.69,2.37-.99,3.51-2.54,9.39-6.81,17.9-12.99,25.42-.6,.73-1.29,1.45-2.07,1.95-1.57,1-2.45,.7-3.84-1.17,5.27-6.84,9.32-14.42,12.21-22.6,1.08-3.08,1.93-6.24,2.8-9.1-1.55-1.93-2.88-3.57-4.28-5.32-.36,.65-.75,1.33-1.11,2.04-5.95,11.89-10.89,24.18-14.66,36.93-.14,.46-.24,.93-.42,1.37-.58,1.46-1.29,1.95-2.76,1.59-4.45-1.1-8.68-2.75-12.46-5.39-1.88-1.32-2.1-1.98-1.22-4.06,5.41-12.8,10.3-25.81,16.56-38.26,3.91-7.77,7.18-15.86,10.73-23.81,.23-.51,.48-1.02,.63-1.56,.95-3.41,3.3-4.58,6.67-4.5,3.85,.09,7.65,.46,11.35,1.51,1.13,.32,2.26,.83,3.25,1.46,2.15,1.36,1.92,3.09,.82,4.65-3.51,4.95-6.86,10.02-10.23,15.07-.97,1.45-1.8,3-2.81,4.71,2.38-.42,4.5-.92,6.65-1.12,1.73-.16,3.52-.1,5.24,.15,2.59,.37,3.87,1.98,3.91,4.63,.01,.87-.1,1.75-.26,2.61-.14,.77-.42,1.52-.71,2.52,1.52,.58,2.98,1.16,4.45,1.69,1.5,.54,3.04,.97,4.52,1.56,.95,.39,1.89,.89,2.7,1.53,1.27,1,1.48,2.19,.71,3.61-.37,.7-.9,1.32-1.4,1.94-2.45,3.06-5.03,6.01-7.33,9.18-1.53,2.12-2.83,4.46-3.91,6.84-.6,1.32-.73,2.94-.71,4.42,.01,1.5,1.14,2.08,2.52,1.48,.72-.31,1.41-.78,1.99-1.32,3.23-2.99,6.46-5.96,9.58-9.06,.74-.73,1.21-1.86,1.5-2.89,1.82-6.38,4.56-12.3,8.74-17.45,1.59-1.96,3.49-3.76,5.53-5.25,2.74-2,5-1.83,7.68,.25,2.17,1.68,4.34,3.11,7.15,3.62,2.38,.43,4.39,1.87,6.01,3.73,1.36,1.56,1.97,3.27,1.12,5.3-1.11,2.65-2.21,5.3-3.33,7.94-.3,.72-.66,1.42-1.04,2.24,1.99,.42,3.64-.2,5.14-1.07,.6-.34,.97-1.21,1.26-1.91,1.65-4.01,3.7-7.79,6.47-11.16,1.74-2.11,3.71-3.96,6.09-5.36,2.29-1.34,4.73-1.86,7.36-1.48,3.67,.52,5.16,2.75,4.11,6.26-.58,1.93-1.52,3.67-2.96,5.27-5.01-.82-8.09,2.09-10.61,5.84-2.72,4.03-4.45,8.47-5.01,13.33-.06,.55-.12,1.12-.09,1.67,.14,2.65,1.3,3.43,3.53,2.07,1.61-.98,3.22-2.2,4.34-3.68,1.92-2.53,3.81-5.19,5.09-8.08,3.31-7.44,6.34-15.01,9.35-22.58,1.33-3.35,2.13-6.87,2.05-10.52-.05-2.34-.4-4.61-1.82-6.95-5.25-.75-10.68-1.59-16.13-2.31-8.93-1.17-17.91-2.08-26.45-5.24-7.84-2.9-14.88-7.02-20.32-13.5-1.43-1.7-2.63-3.62-3.79-5.52-2.08-3.41-1.59-6.81,.7-9.84,1.28-1.69,2.94-3.16,4.66-4.42,3.89-2.86,8.38-4.56,12.88-6.24,11.11-4.16,22.59-6.69,34.36-8.05,10.65-1.24,21.31-1.95,32.04-1.42,.47,.02,.95,0,1.58,0-.2-.8-.37-1.46-.59-2.34,10.88-7.97,21.75-15.94,32.88-24.1-.97-2.03-1.9-4.12-2.96-6.15-1.05-2-2.23-3.92-3.15-6.06,2.69,.19,4.3,2,5.87,3.68,1.62,1.73,2.97,3.73,4.49,5.68,2.53-1.46,5.06-2.94,7.61-4.39,.9-.51,1.83-1,2.79-1.37,2.5-.96,4.91-.82,6.89,1.14,1.75,1.74,3.38,3.6,4.99,5.48,.53,.63,.82,1.47,1.2,2.19-.29,.19-.38,.29-.42,.27-2.5-.85-4.6,.27-6.72,1.34-3.85,1.95-7.34,4.45-11.13,7.05,1.93,3.57,3.65,7.08,5.67,10.4,1.96,3.24,4.23,6.3,6.49,9.64-1.43,.36-2.11-.34-2.82-.9-4.01-3.15-7.2-7.02-9.96-11.27-1.07-1.66-2.1-3.36-3.24-5.19-7.56,5.35-14.96,10.67-22.34,16.36,4.32,1.19,8.33,2.13,12.24,3.4,8.39,2.71,15.64,7.25,21.16,14.22,1.42,1.8,2.67,3.82,3.56,5.93,2.08,4.89,1.13,9.39-2.46,13.3-.48,.52-1.13,.89-1.9,1.48,2.67,2.51,5.49,4.43,6.62,8.13-1.62-.22-2.93-.35-4.23-.57-3.22-.55-6.43-1.18-9.66-1.66-.82-.12-1.76,.01-2.56,.29-11.39,4-23.16,5.27-35.14,4.76-10.22-.43-20.33-1.88-30.35-3.94-8.66-1.78-17.3-3.71-25.95-5.54-5.2-1.1-8.76-4.36-11.55-8.67-.16-.25-.18-.59-.35-1.2,.78-.2,1.49-.53,2.21-.56,9.74-.34,19.49-.9,29.23-.87,7.82,.02,15.64,.6,23.44,1.22,8.03,.64,16.04,1.56,24.04,2.52,4.83,.58,9.62,1.45,14.42,2.22,1.87,.3,3.57,.16,5.27-.84,2.92-1.72,5.68-3.59,7.82-6.25,2.24-2.79,3.41-5.91,2.76-9.58-.22-1.23-.76-1.97-1.87-2.53-4.88-2.47-10.04-4.08-15.36-5.2-7.99-1.68-16.08-2.44-24.25-2.51-8.24-.07-16.46,.1-24.65,1.07-12.38,1.47-24.62,3.59-36.3,8.12-3.79,1.47-7.55,3.06-11.15,4.93-2.23,1.16-4.23,2.83-6.14,4.5-1.68,1.46-2.41,3.54-2.67,5.75-.19,1.66,.24,2.79,1.93,3.65,4.58,2.34,9.33,4.22,14.36,5.15,6.26,1.16,12.59,2.02,18.9,2.95,3.79,.55,7.61,.88,11.39,1.48,4.25,.69,7.86,2.59,10.47,6.14,.28,.39,.6,.75,.92,1.1,.1,.11,.25,.19,.5,.38,1.13-.24,2.36-.54,3.6-.76,5.76-1,10.28,2.56,10.27,8.39,0,2.34-.48,4.8-1.28,7.01-1.52,4.2-3.39,8.27-5.17,12.37-2.38,5.49-4.95,10.91-7.18,16.47-.91,2.26-1.18,4.78-1.67,7.2-.12,.61-.06,1.29,.07,1.91,.33,1.57,1.33,1.97,2.61,1.02,.69-.52,1.3-1.19,1.85-1.87,1.77-2.17,3.57-4.32,5.21-6.58,.63-.86,1.02-1.97,1.27-3.03,1.3-5.58,3.28-10.87,6.6-15.56,1.09-1.54,2.43-2.99,3.9-4.18,2.16-1.75,3.65-1.63,5.84,.03,.83,.63,1.57,1.38,2.43,1.94,.71,.46,1.57,.7,2.35,1.06,1.58,.73,3.3,1.27,4.69,2.26,2.41,1.72,3.54,4.05,2.43,7.1-.98,2.69-1.88,5.41-2.91,8.38,5.64-.16,7.37-4.77,10.33-8.16-1.42-.78-2.65-1.33-3.73-2.09-3.72-2.62-3.78-6.61-.17-9.35,2.4-1.82,5.19-2.45,8.12-2.33,2.41,.1,3.62,1.4,3.79,3.81,.1,1.34,.02,2.69,.02,4.45,1.11,.47,2.56,1.04,3.99,1.69,1.09,.49,2.21,.95,3.18,1.63,1.34,.93,1.6,2.06,.94,3.58-.38,.87-.95,1.66-1.41,2.5-1.54,2.8-3.17,5.55-4.55,8.43-.74,1.56-1.13,3.32-1.47,5.03-.16,.81,.06,1.74,.28,2.57,.2,.78,.87,.88,1.54,.55,.35-.17,.65-.46,.92-.75,.44-.46,.84-.96,1.25-1.46,7.56-9.11,8.87-11.83,10.91-23.44,.22-1.24-.22-2.59-.4-4.27,.08-.06,.47-.51,.94-.64,2.15-.58,4.31-1.19,6.58-.57,2.74,.75,3.76,2.18,3.12,4.95-.46,2.02-1.24,3.96-1.86,5.94-1.51,4.79-3.08,9.57-4.48,14.39-.37,1.27-.32,2.7-.25,4.04,.04,.84,.28,1.84,.79,2.46,4.2,5.11,8.09,10.53,13.8,14.21,4.33,2.79,8.89,4.83,13.89,6.2,8.83,2.43,17.51,5.39,26.27,8.06,4.34,1.32,8.76,2.42,13.09,3.76,4.42,1.36,6.97,4.86,9.29,8.56,.12,.19,.12,.46,.12,.7,0,.15-.09,.3-.2,.64-1.76-.17-3.56-.34-5.36-.52-2.46-.25-4.91-.63-7.38-.77-4.63-.26-9.26-.5-13.89-.56-24.14-.31-48.28-.8-72.42-.76-28.3,.04-56.6,.56-84.9,.87-11.91,.13-23.82,.17-35.73,.42-8.07,.17-16.14,.42-24.19,1.01-13.18,.97-26.04,3.66-38.49,8.14-2.86,1.03-5.64,2.21-8.05,4.15-4.56,3.68-4.11,8.24-1.77,11.7,1.1,1.63,2.53,3.11,4.08,4.33,4.92,3.89,10.62,6.08,16.78,7.12,8.79,1.48,17.51,.76,26.2-.73,15.3-2.63,29.95-7.59,44.62-12.48,4.3-1.43,8.61-2.87,13.33-4.45-.72-.33-1.06-.55-1.43-.66-4.54-1.36-8.62-3.42-11.37-7.47-.69-1.02-1.22-2.15-2.01-3.56,.9,.12,1.38,.1,1.79,.26,4.88,2,10.02,2.52,15.23,2.72,7.87,.31,15.64-.23,23.23-2.44,1.28-.37,2.52-.94,3.72-1.53,1.09-.54,2.13-.59,3.21-.12,2.37,1.04,6.58,6.07,7.38,8.82-.14,.16-.26,.42-.45,.49-3.3,1.24-5.48,3.8-7.53,6.47-5.77,7.53-10.27,15.79-13.81,24.58-1.36,3.37-1.99,6.9-1.95,10.54,.02,1.73,0,3.46,0,5.5-.81-.36-1.36-.49-1.75-.81-1.36-1.11-2.74-2.21-3.97-3.46-2.34-2.39-3.48-5.22-3.35-8.66,.25-6.68,2.15-12.88,5.06-18.83,.58-1.19,1.17-2.37,1.99-4.02-1.39,.37-2.3,.56-3.18,.85-8.93,2.96-17.83,6-26.78,8.88-12.46,4-25.09,7.32-38,9.51-7.7,1.3-15.42,1.43-23.12,.04-4.66-.85-9.06-2.53-13.19-4.87-8.79-4.97-15.86-11.81-21.61-20.05-1.93-2.77-3.41-5.77-3.56-9.27-.12-2.82,.9-5.15,2.89-7.09,1.99-1.93,4.4-3.17,6.96-4.11,8.09-2.97,16.33-5.43,24.86-6.84,.14-.02,.27-.14,.62-.32-.39-.4-.71-.77-1.07-1.1-6.52-6.08-10.67-13.46-12.28-22.24-.28-1.51-.17-3,.59-4.72,.67,.32,1.4,.48,1.85,.92,1.88,1.83,3.72,3.72,5.49,5.65,.9,.98,1.13,2.17,.92,3.56-.46,3.1,.29,6.06,1.61,8.84,1.43,3.02,3.06,5.94,4.64,8.98,12.25-2.1,24.54-2.21,36.84-2.4,24.22-.37,48.43-1.1,72.65-1.25,33.98-.22,67.96-.06,101.93-.02,5.03,0,10.06,.25,15.09,.39,.02-.15,.05-.3,.07-.45Zm-156.14-54.34c-2.1-.06-3.37,1.08-4.54,2.23-4.39,4.33-7.13,9.55-8,15.67-.23,1.63-.18,3.34,0,4.99,.16,1.52,1,1.95,2.32,1.23,1.1-.6,2.14-1.39,3.03-2.27,2.74-2.72,4.76-5.96,6.66-9.3,.91-1.6,1.37-2.98,.4-4.86-.64-1.24-.51-2.93-.51-4.42,0-1,.37-2.01,.63-3.28Zm62.12,24.9c1.66,.55,2.53-.49,3.37-1.44,2.68-3.03,4.54-6.56,5.97-10.31,.22-.57,.13-1.42-.13-1.99-.95-2.06-1.01-4.16-.67-6.33,.07-.45,.13-.9,.19-1.4-5.77,1.11-11.08,14.2-8.73,21.47Zm9.07-70.11c-10.79-1.58-26.99-2.31-29.91-1.39,10.11,1.24,19.96,2.5,29.91,1.39Z"/><path class="cls-1" d="M357.37,202.47c-.71-.3-1.27-.42-1.69-.74-1.33-1.01-2.67-2.03-3.9-3.17-2.46-2.28-3.82-4.83-3.12-8.49,.97-5.03,2.08-10,3.94-14.78,7.9-20.3,18.84-38.75,33.39-55.01,.32-.35,.6-.74,1.17-1.45-1.24,.46-2.12,.76-2.97,1.11-4.36,1.78-8.78,3.33-13.41,4.3-9.08,1.91-16.86-.42-23.58-6.75-7.5-7.05-11.77-15.64-12.4-25.93-.38-6.14-.53-12.3-.8-18.44-.04-.92-.14-1.84-.24-3.13-.84,.78-1.45,1.27-1.96,1.84-5.43,6.08-10.83,12.19-16.26,18.27-4.73,5.31-9.41,10.67-14.27,15.86-3.02,3.22-6.58,5.8-10.59,7.73-6.26,3.02-12.46,2.92-18.63-.24-5.31-2.72-9.5-6.71-13.06-11.42-2.81-3.71-5.11-7.73-6.94-12-.31-.72-.64-1.43-1.18-2.65-.43,1.31-.77,2.17-.99,3.06-2.57,10.55-5.17,21.09-7.66,31.65-2.62,11.11-5.13,22.25-7.69,33.37-.19,.84-.49,1.66-.81,2.73-3.65-1.88-6.38-4.48-8.1-7.98-.46-.94-.17-2.37,.07-3.52,1.13-5.39,2.36-10.76,3.57-16.13,2.86-12.61,5.51-25.28,8.67-37.82,2.34-9.28,5.34-18.38,8.08-27.56,.26-.88,.75-1.69,1.25-2.77,.91,.49,1.67,.76,2.26,1.24,1.35,1.11,2.67,2.28,3.91,3.51,1.95,1.93,2.72,4.17,2.77,7.06,.14,8.62,2.16,16.92,5.41,24.91,.06,.15,.15,.28,.21,.43,2.48,5.91,6.74,7.96,13.84,7.02,4.82-.64,8.86-2.99,12.52-6.1,6.54-5.57,12.34-11.86,17.73-18.51,8.72-10.76,18.33-20.7,27.94-30.64,.22-.22,.49-.4,.9-.73,3.28,2.04,6.26,4.37,8.11,7.88,.28,.54,.47,1.23,.42,1.82-.71,7.91-.29,15.82-.01,23.73,.18,5.11,.34,10.23,.65,15.33,.27,4.49,1.2,8.85,3.03,13,.52,1.19,1.3,1.86,2.53,2.29,3.9,1.35,7.88,1.26,11.84,.63,6.59-1.05,12.7-3.62,18.77-6.29,7.45-3.27,14.92-6.42,22.79-8.61,4.48-1.25,7.93-.47,10.89,3.05,1.28,1.52,2.66,2.94,3.42,4.85-2.26,1.7-4.51,3.22-6.56,4.98-7.24,6.22-13.53,13.37-19.63,20.68-13.75,16.49-24.36,34.78-30.94,55.28-1.11,3.47-1.56,7.16-2.3,10.75-.16,.76-.26,1.54-.42,2.49Z"/><path class="cls-1" d="M411.22,141.72c-2.52,.55-4.55,2.38-6.38,4.2-7.01,6.98-13.09,14.82-19.09,22.69-4.82,6.32-9.74,13.01-11.04,20.86-2.43-.6-4.33-2.44-6.1-4.21-1.05-1.05-2.14-2.17-2.48-3.62-.26-1.11-.03-2.27,.25-3.37,2.26-8.88,8.23-16.39,13.75-23.5s12.09-14.45,18.97-20.87c.75-.7,1.59-1.42,2.61-1.48,.69-.04,1.35,.25,1.96,.57,3.5,1.82,6.27,5,7.59,8.71-.02,0-.05,0-.07,.01Z"/><path class="cls-1" d="M364.19,254.15c-.6,.15-.92,.34-1.18,.28-.93-.21-1.94-.33-2.74-.8-4.85-2.87-8.49-6.81-9.71-12.44-.41-1.88-.26-4.02,.18-5.91,1.42-6.19,4.85-11.05,10.38-14.32,4.35-2.57,8.52-2.22,12.48,.83,2.94,2.27,5.34,5.06,7.39,8.13,2.3,3.45,2.59,7.22,.99,10.98-.99,2.33-2.35,4.54-3.8,6.62-1.62,2.34-3.53,4.49-5.44,6.88-1.07-.66-2.08-1.05-2.76-1.75-1.72-1.77-3.39-3.61-4.9-5.56-1.26-1.63-1.13-1.79,.23-3.52,1.87-2.39,3.78-4.75,5.57-7.2,1.6-2.19,2.8-4.59,3.15-7.56-2.3,.33-4.13,1.25-5.82,2.41-5,3.46-7.77,8.35-8.91,14.24-.25,1.27,.03,2.28,1.04,3.22,1.04,.97,1.92,2.14,2.77,3.3,.44,.6,.67,1.35,1.07,2.17Z"/><path class="cls-1" d="M213.57,68.95c.74,.25,1.34,.3,1.75,.61,4.14,3.03,7.64,6.44,8.17,12.03,.9,9.46,1.93,18.93,.93,28.43-.78,7.37-1.97,14.7-3.04,22.03-.32,2.21-.81,4.39-1.25,6.58-.15,.76-.36,1.51-.58,2.43-.71-.32-1.29-.44-1.68-.77-1.76-1.49-3.56-2.95-5.17-4.6-1.61-1.65-2.26-3.51-1.73-6.07,1.44-7.03,2.63-14.11,3.63-21.22,1.26-8.96,1.32-17.99,.48-27-.38-4.04-.98-8.05-1.52-12.45Z"/><path class="cls-1" d="M288.09,337.52c-2.97,3.14-5.67,5.96-8.34,8.82-3.44,3.68-6.66,7.55-8.99,12.06-.62,1.2-1.2,2.44-1.64,3.72-.4,1.17-.57,2.42-.91,3.97-1.23-.76-2.54-1.36-3.57-2.27-1.37-1.2-2.52-2.66-3.79-3.97-1.79-1.84-1.93-3.97-1.04-6.21,.62-1.55,1.3-3.09,2.14-4.53,4.28-7.31,9.99-13.42,16.27-19.04,.98-.87,1.84-.77,2.8-.14,3.06,2.02,5.38,4.69,7.08,7.6Z"/><path class="cls-1" d="M409.32,262.51c-3.49-2.74-7.13-5.09-8.25-9.67-.13-.55-.73-.98-1.13-1.46-1.31-1.59-2.69-3.14-3.92-4.79-.57-.76-.84-1.69-.16-2.65,2.81-3.96,5.59-7.94,8.52-12.11,.7,.35,1.37,.57,1.91,.96,2.27,1.66,4.26,3.6,5.76,6,.39,.62,.7,1.26,1.63,1.06,.2-.04,.48,.08,.67,.2,3.27,2.21,6.07,4.83,7.74,8.6-5.2,3.7-8.26,9.16-12.77,13.85Z"/><path class="cls-1" d="M256.83,365.06c-.75-.34-1.38-.49-1.82-.86-1.71-1.43-3.43-2.85-5.01-4.42-2.42-2.41-2.83-5.43-2.34-8.67,.58-3.85,1.95-7.43,4.04-10.69,2.07-3.22,4.33-6.32,6.58-9.43,.99-1.37,1.49-1.52,2.73-.46,2.12,1.8,4.19,3.7,6.01,5.79,1.51,1.73,1.32,2.1-.01,3.96-2,2.79-4.06,5.55-5.92,8.43-2.23,3.45-3.85,7.2-4.24,11.34-.15,1.56-.02,3.15-.02,5.01Z"/><path class="cls-1" d="M412.57,162.47c-1.21,.68-2.32,1.04-3.05,1.77-2.6,2.57-5.13,5.23-7.59,7.94-2.67,2.95-5.24,6-7.98,9.15-3.57-1.98-6.47-4.46-8.39-7.98-.24-.44-.19-1.36,.12-1.7,4.91-5.45,9.15-11.5,14.75-16.32,2.49-2.15,3.14-2.19,5.76-.25,2.32,1.73,4.32,3.78,5.89,6.22,.25,.39,.37,.85,.51,1.17Z"/><path class="cls-1" d="M350.09,260.31c.13,0,.26,0,.39,.02,.88,.09,1.72,.47,2.48,.92,1.67,.98,3.1,2.3,4.48,3.66,1.84,1.82,3.62,3.74,4.84,6.02,.81,1.51,1.37,3.23,1.13,4.93s-1.45,3.33-3.13,3.67c-1.71,.35-3.39-.65-4.81-1.66-1.91-1.36-3.75-2.83-5.46-4.43-1.72-1.62-3.33-3.39-4.52-5.44-.54-.93-.99-1.94-1.1-3.01-.12-1.29,.36-2.43,1.28-3.33s2.22-1.18,3.43-1.31c.33-.04,.66-.06,.99-.06Z"/><path class="cls-1" d="M200.88,97.11c.8,.3,1.36,.41,1.8,.69,2.7,1.77,4.87,4.1,6.61,6.8,.33,.5,.53,1.2,.51,1.79-.22,5-.51,10-.78,15.19-.6-.15-1.09-.16-1.45-.38-2.52-1.58-4.74-3.49-6.46-5.95-.84-1.21-1.27-2.48-1.16-4.02,.28-4.05,.4-8.11,.61-12.17,.03-.54,.17-1.07,.32-1.96Z"/><path class="cls-1" d="M337.4,230.7c-.31,.97-.52,2-.95,2.92-.97,2.08-2.1,2.63-4.22,1.71-1.8-.79-3.57-1.81-5.08-3.05-1.68-1.37-1.61-3.77-.19-5.89,1.29-1.94,3.02-2.48,5.18-1.6,1.92,.77,3.38,2.12,4.47,3.83,.37,.58,.5,1.31,.78,2.09Z"/><path class="cls-1" d="M127.62,296.8c-5.57-1-14.41-13.4-13.71-19.32,.68,.27,1.42,.36,1.86,.77,1.86,1.73,3.74,3.45,5.37,5.39,.76,.91,1.11,2.26,1.34,3.47,.36,1.92,.94,3.62,2.34,5.09,1.18,1.24,2.38,2.56,2.81,4.59Z"/></g></g></svg>